<?xml version="1.0"?>
<svg version="1.1" xmlns="http://www.w3.org/2000/svg" width="450px" height="200px" style="border: dashed 2px #aaa"><path fill="#f7fa69" d="M125.37177734375,107.1875l5.95703125-11.7578125l6.5234375,0l-9.47265625,17.44140625l0,11.11328125l-6.015625,0l0-10.91796875l-9.47265625-17.63671875l6.5625,0z M155.21103515625,123.984375l-6.0546875,0l0-23.515625l-7.75390625,0l0-5.0390625l21.5625,0l0,5.0390625l-7.75390625,0l0,23.515625z M195.33876953125,123.984375l-6.875-22.40234375l-0.17578125,0q0.37109375,6.8359375,0.37109375,9.12109375l0,13.28125l-5.41015625,0l0-28.5546875l8.2421875,0l6.7578125,21.8359375l0.1171875,0l7.16796875-21.8359375l8.2421875,0l0,28.5546875l-5.64453125,0l0-13.515625q0-0.95703125,0.029296875-2.20703125t0.263671875-6.640625l-0.17578125,0l-7.36328125,22.36328125l-5.546875,0z M227.99052734375,113.02734375q0,3.2421875,1.064453125,4.90234375t3.466796875,1.66015625q2.3828125,0,3.427734375-1.650390625t1.044921875-4.912109375q0-3.2421875-1.0546875-4.86328125t-3.45703125-1.62109375q-2.3828125,0-3.4375,1.611328125t-1.0546875,4.873046875z M243.08818359375,113.02734375q0,5.33203125-2.8125,8.33984375t-7.83203125,3.0078125q-3.14453125,0-5.546875-1.376953125t-3.69140625-3.955078125t-1.2890625-6.015625q0-5.3515625,2.79296875-8.3203125t7.8515625-2.96875q3.14453125,0,5.546875,1.3671875t3.69140625,3.92578125t1.2890625,5.99609375z M255.95478515625,123.984375l-8.3203125-21.8359375l6.23046875,0l4.21875,12.44140625q0.703125,2.36328125,0.87890625,4.47265625l0.1171875,0q0.09765625-1.875,0.87890625-4.47265625l4.19921875-12.44140625l6.23046875,0l-8.3203125,21.8359375l-6.11328125,0z M276.00888671875,96.50390625q0-2.91015625,3.2421875-2.91015625t3.2421875,2.91015625q0,1.38671875-0.810546875,2.158203125t-2.431640625,0.771484375q-3.2421875,0-3.2421875-2.9296875z M282.21982421875,123.984375l-5.95703125,0l0-21.8359375l5.95703125,0l0,21.8359375z M300.26220703125,105.9765625q-1.89453125,0-2.96875,1.201171875t-1.23046875,3.408203125l8.359375,0q-0.0390625-2.20703125-1.15234375-3.408203125t-3.0078125-1.201171875z M301.10205078125,124.375q-5.2734375,0-8.2421875-2.91015625t-2.96875-8.2421875q0-5.48828125,2.744140625-8.486328125t7.587890625-2.998046875q4.62890625,0,7.20703125,2.63671875t2.578125,7.28515625l0,2.890625l-14.08203125,0q0.09765625,2.5390625,1.50390625,3.96484375t3.9453125,1.42578125q1.97265625,0,3.73046875-0.41015625t3.671875-1.30859375l0,4.609375q-1.5625,0.78125-3.33984375,1.162109375t-4.3359375,0.380859375z M332.83583984375,117.5q0,3.359375-2.333984375,5.1171875t-6.982421875,1.7578125q-2.3828125,0-4.0625-0.322265625t-3.14453125-0.947265625l0-4.921875q1.66015625,0.78125,3.740234375,1.30859375t3.662109375,0.52734375q3.2421875,0,3.2421875-1.875q0-0.703125-0.4296875-1.142578125t-1.484375-0.99609375t-2.8125-1.298828125q-2.51953125-1.0546875-3.701171875-1.953125t-1.71875-2.060546875t-0.537109375-2.861328125q0-2.91015625,2.255859375-4.501953125t6.396484375-1.591796875q3.9453125,0,7.67578125,1.71875l-1.796875,4.296875q-1.640625-0.703125-3.06640625-1.15234375t-2.91015625-0.44921875q-2.63671875,0-2.63671875,1.42578125q0,0.80078125,0.849609375,1.38671875t3.720703125,1.73828125q2.55859375,1.03515625,3.75,1.93359375t1.7578125,2.0703125t0.56640625,2.79296875z"/></svg>
